<?xml version="1.0" standalone="no"?>
<!DOCTYPE svg PUBLIC "-//W3C//DTD SVG 20010904//EN"
 "http://www.w3.org/TR/2001/REC-SVG-20010904/DTD/svg10.dtd">
<svg version="1.0" xmlns="http://www.w3.org/2000/svg"
 width="1117.000000pt" height="529.000000pt" viewBox="0 0 1117.000000 529.000000"
 preserveAspectRatio="xMidYMid meet">

<g transform="translate(0.000000,529.000000) scale(0.100000,-0.100000)"
fill="#000000" stroke="none">
<path d="M0 2645 l0 -2645 5585 0 5585 0 0 2645 0 2645 -5585 0 -5585 0 0
-2645z m2982 324 l-315 -841 -36 7 c-70 13 -262 76 -352 114 -239 104 -401
239 -478 401 -23 48 -26 68 -26 156 0 95 2 104 37 175 20 41 62 102 93 136 57
64 193 162 294 213 132 66 350 135 541 170 92 18 93 18 40 19 -30 1 -112 -6
-182 -14 -431 -50 -808 -203 -1035 -418 l-73 -70 0 397 0 396 904 0 904 0
-316 -841z m1648 218 l0 -624 -102 102 c-114 112 -211 180 -367 256 -88 43
-274 111 -399 145 l-33 9 107 155 c58 85 108 160 111 166 2 7 -52 102 -121
213 l-125 201 465 0 464 0 0 -623z m3300 143 l0 -480 -30 0 -30 0 0 480 0 480
30 0 30 0 0 -480z m-2170 398 c68 -31 140 -100 174 -167 72 -142 74 -376 5
-514 -48 -93 -102 -144 -195 -182 l-52 -21 99 -104 c54 -57 99 -106 99 -107 0
-2 -21 -3 -47 -3 l-48 0 -85 98 -85 98 -90 10 c-198 22 -320 131 -361 323 -59
279 50 514 271 588 27 8 77 12 150 9 91 -2 119 -7 165 -28z m2542 7 c16 -36 0
-79 -31 -83 -27 -4 -41 12 -41 50 0 41 10 58 36 58 16 0 28 -8 36 -25z m368
-135 l0 -80 100 0 100 0 0 -25 0 -25 -100 0 -100 0 0 -247 c0 -216 2 -253 18
-283 22 -45 67 -62 145 -54 57 6 59 6 55 -17 -2 -19 -11 -25 -48 -32 -95 -16
-176 13 -213 77 -8 14 -14 103 -17 286 l-5 265 -52 3 c-67 4 -72 26 -10 42 23
6 47 13 53 15 6 2 15 21 18 42 14 78 27 113 41 113 12 0 15 -16 15 -80z
m-1248 -81 c64 -14 120 -65 137 -124 7 -24 11 -139 11 -292 0 -242 -1 -253
-19 -253 -21 0 -31 19 -31 60 0 41 -13 44 -46 9 -43 -45 -86 -68 -148 -80 -67
-12 -158 2 -196 29 -93 68 -102 205 -20 283 54 52 114 70 250 75 172 7 164 3
156 76 -4 34 -16 79 -27 101 -41 78 -160 98 -289 47 -29 -11 -54 -19 -55 -18
-1 2 -7 13 -14 25 -10 20 -7 23 52 42 102 33 156 37 239 20z m-1100 -268 c3
-256 4 -271 24 -298 37 -49 76 -65 160 -65 123 1 196 50 224 151 5 20 10 136
10 259 l0 222 30 0 30 0 0 -335 0 -335 -24 0 c-22 0 -26 6 -32 46 l-6 45 -32
-32 c-59 -61 -171 -89 -276 -69 -69 13 -115 44 -143 95 -21 38 -22 54 -25 313
l-3 272 30 0 30 0 3 -269z m1978 -66 l0 -335 -30 0 -30 0 0 335 0 335 30 0 30
0 0 -335z m778 283 c11 -29 56 -145 100 -258 44 -113 85 -223 92 -245 7 -22
16 -44 20 -48 4 -4 33 61 65 145 32 84 85 222 117 306 59 149 61 152 90 152
26 0 29 -3 22 -22 -14 -46 -325 -821 -344 -857 -39 -77 -116 -113 -205 -97
-29 6 -35 11 -35 32 0 24 2 25 43 19 83 -13 128 26 182 153 19 46 35 88 35 92
0 5 -58 158 -130 340 -71 182 -130 333 -130 335 0 3 13 5 29 5 26 0 32 -6 49
-52z m-5259 -514 c203 -95 359 -229 423 -363 40 -83 49 -196 24 -282 -40 -140
-177 -282 -376 -392 -150 -83 -419 -168 -623 -198 l-87 -12 -102 -159 -101
-158 -198 0 -198 0 87 128 c1010 1482 1017 1492 1037 1486 11 -3 62 -26 114
-50z m4141 -511 l1 -198 20 28 c12 15 42 39 67 54 39 23 60 28 138 31 109 5
150 -6 195 -53 54 -55 57 -75 58 -362 l1 -263 -24 0 -24 0 -4 253 c-3 228 -5
256 -23 291 -28 55 -64 78 -129 84 -123 10 -208 -27 -248 -108 -21 -42 -23
-60 -26 -282 l-4 -238 -29 0 -29 0 0 480 0 480 30 0 30 0 0 -197z m-966 126
c12 -36 0 -76 -26 -85 -39 -12 -63 50 -37 97 15 28 51 21 63 -12z m-1684 -439
l0 -450 -30 0 -30 0 0 450 0 450 30 0 30 0 0 -450z m3422 303 l3 -78 103 -3
c101 -3 102 -3 102 -27 0 -25 0 -25 -106 -25 l-105 0 3 -247 c3 -211 6 -253
20 -279 23 -41 63 -57 137 -52 57 3 61 1 61 -18 0 -26 -23 -34 -98 -34 -95 0
-153 40 -171 120 -6 25 -11 150 -11 278 l0 232 -50 0 c-42 0 -50 3 -50 18 0
13 13 22 50 31 53 14 57 19 76 124 3 21 12 37 20 37 10 0 14 -21 16 -77z
m-2755 -88 c48 -20 70 -41 97 -90 20 -38 21 -57 24 -307 l3 -268 -30 0 -30 0
-3 263 c-3 252 -4 263 -26 298 -28 46 -82 69 -160 69 -77 0 -126 -15 -166 -51
-58 -51 -68 -95 -73 -351 l-6 -228 -23 0 -24 0 0 335 0 335 25 0 c22 0 25 -5
25 -32 0 -47 15 -67 29 -40 12 23 68 60 109 72 48 15 190 11 229 -5z m724 -5
c34 -12 36 -14 26 -40 l-11 -28 -40 15 c-56 20 -191 28 -243 14 -100 -27 -125
-119 -49 -183 12 -9 74 -38 138 -63 134 -53 173 -77 205 -124 41 -61 25 -152
-36 -204 -52 -43 -128 -60 -245 -54 -56 2 -119 11 -141 18 -35 12 -40 18 -43
48 -3 29 -1 33 15 26 44 -19 152 -44 195 -44 162 -2 255 78 204 177 -17 32
-78 68 -189 111 -158 60 -207 106 -207 191 0 74 41 122 130 151 35 12 248 3
291 -11z m991 10 c61 0 68 -2 68 -20 0 -18 -7 -20 -63 -20 -35 0 -66 -2 -69
-5 -3 -3 6 -26 18 -52 31 -59 32 -147 5 -201 -41 -80 -106 -114 -225 -118 -72
-2 -82 -5 -107 -31 -38 -39 -45 -73 -21 -104 19 -23 27 -24 169 -30 100 -4
159 -10 183 -21 112 -48 132 -202 39 -290 -62 -59 -149 -81 -297 -76 -132 4
-182 22 -225 80 -51 69 -40 166 25 222 22 19 53 38 69 41 l30 7 -31 34 c-18
21 -30 46 -30 62 0 33 32 87 60 102 20 11 19 13 -29 58 -114 108 -87 288 54
354 35 17 56 18 174 14 74 -3 165 -6 203 -6z m1789 -10 c34 -12 36 -14 26 -40
l-11 -28 -40 15 c-55 20 -191 28 -242 14 -81 -22 -113 -79 -82 -146 15 -33 53
-56 165 -99 180 -69 223 -103 231 -185 13 -137 -97 -209 -302 -198 -56 2 -119
11 -141 18 -35 12 -40 18 -43 48 -3 29 -1 33 15 26 44 -19 152 -44 195 -44
164 -2 255 78 203 179 -17 32 -80 68 -201 114 -144 54 -194 104 -194 193 0 67
45 116 130 144 35 12 248 3 291 -11z m-2491 -325 l0 -335 -30 0 -30 0 0 335 0
335 30 0 30 0 0 -335z m-5315 -98 c157 -117 433 -232 670 -280 63 -13 117 -26
120 -29 3 -2 -12 -52 -34 -109 l-39 -104 -451 -3 -451 -2 0 343 0 343 53 -50
c28 -27 88 -76 132 -109z m2955 -342 l0 -185 -242 0 -243 0 101 54 c146 77
261 167 335 262 23 30 43 54 45 54 2 0 4 -83 4 -185z m5000 -150 l0 -35 -870
0 -870 0 0 35 0 35 870 0 870 0 0 -35z"/>
<path d="M5488 3697 c-119 -27 -199 -106 -239 -239 -29 -93 -24 -273 10 -359
29 -76 89 -141 159 -176 51 -25 68 -28 157 -28 87 0 107 3 155 26 140 65 196
189 188 409 -5 136 -27 204 -88 272 -73 83 -216 123 -342 95z"/>
<path d="M7370 3183 c-64 -4 -150 -23 -183 -40 -60 -30 -86 -127 -52 -192 20
-40 77 -64 146 -63 142 2 228 91 229 235 l0 67 -47 -2 c-27 -1 -68 -3 -93 -5z"/>
<path d="M7340 2298 c-116 -59 -119 -243 -6 -297 54 -27 147 -28 196 -3 54 27
80 74 80 143 0 111 -52 168 -162 176 -52 4 -71 0 -108 -19z"/>
<path d="M7275 1690 c-23 -11 -48 -33 -58 -49 -21 -36 -22 -102 -2 -140 54
-105 360 -102 444 5 28 35 36 85 21 129 -20 60 -65 75 -230 75 -115 0 -141 -3
-175 -20z"/>
</g>
</svg>
